<svg width="55" height="55" viewBox="0 0 55 55" fill="none" xmlns="http://www.w3.org/2000/svg">
<rect y="0.16748" width="54.239" height="54.6651" rx="27.1195" fill="#4560ED"/>
<path d="M36.5406 23.774L31.5156 18.749C31.4222 18.6553 31.3113 18.5809 31.1891 18.5302C31.0669 18.4795 30.936 18.4534 30.8037 18.4534C30.6714 18.4534 30.5405 18.4795 30.4183 18.5302C30.2961 18.5809 30.1852 18.6553 30.0918 18.749L19.2705 29.5728C18.5042 30.3391 18.0737 31.3785 18.0737 32.4622C18.0737 33.5459 18.5042 34.5853 19.2705 35.3516C20.0368 36.1179 21.0761 36.5484 22.1599 36.5484C23.2436 36.5484 24.2829 36.1179 25.0492 35.3516L34.3622 26.0335L36.1469 25.4381C36.3095 25.384 36.4556 25.2892 36.5713 25.1628C36.6869 25.0364 36.7683 24.8825 36.8078 24.7158C36.8472 24.549 36.8434 24.375 36.7966 24.2101C36.7498 24.0453 36.6617 23.8951 36.5406 23.774ZM23.6255 33.9278C23.2316 34.2903 22.7128 34.4866 22.1777 34.4755C21.6425 34.4644 21.1323 34.2468 20.7537 33.8683C20.3752 33.4898 20.1577 32.9796 20.1466 32.4444C20.1355 31.9092 20.3317 31.3904 20.6942 30.9966L23.0501 28.6407C23.6975 28.4388 24.69 28.3894 25.9864 29.0594C26.5649 29.3674 27.1837 29.5929 27.8247 29.7294L23.6255 33.9278ZM33.5013 24.2019C33.3536 24.2515 33.2192 24.3343 33.1085 24.444L29.8515 27.7018C29.2041 27.9037 28.2116 27.9531 26.9152 27.2831C26.3369 26.9752 25.7184 26.7497 25.0777 26.6131L30.8045 20.8837L33.9694 24.0487L33.5013 24.2019Z" fill="white"/>
</svg>
