<svg width="11" height="11" viewBox="0 0 11 11" fill="none" xmlns="http://www.w3.org/2000/svg">
<path d="M1.44036 10.5373H9.57615C9.98464 10.5373 10.3158 10.2061 10.3158 9.79745V1.65888C10.3158 1.25026 9.98464 0.919006 9.57615 0.919006H1.44036C1.03188 0.919006 0.700745 1.25026 0.700745 1.65888V9.79745C0.700745 10.2061 1.03188 10.5373 1.44036 10.5373Z" stroke="#777777" stroke-width="0.862878" stroke-linecap="round" stroke-linejoin="round"/>
<path d="M1.62775 10.5373L7.02695 5.44698C7.09339 5.39162 7.17714 5.3613 7.26362 5.3613C7.3501 5.3613 7.43385 5.39162 7.50029 5.44698L10.3182 7.46683" stroke="#777777" stroke-width="0.862878" stroke-linecap="round" stroke-linejoin="round"/>
<path d="M3.65927 4.98379C4.27069 4.98379 4.76635 4.48817 4.76635 3.8768C4.76635 3.26542 4.27069 2.76981 3.65927 2.76981C3.04784 2.76981 2.55219 3.26542 2.55219 3.8768C2.55219 4.48817 3.04784 4.98379 3.65927 4.98379Z" stroke="#777777" stroke-width="0.862878" stroke-linecap="round" stroke-linejoin="round"/>
</svg>
