<svg width="183" height="231" viewBox="0 0 183 231" fill="none" xmlns="http://www.w3.org/2000/svg">
<path d="M161.337 52.0533L160.051 68.0136C154.187 68.1317 148.32 67.9404 142.475 67.4399L131.556 80.9819L125.836 65.3702C112.446 65.2732 100.721 62.8832 87.7458 59.5975C86.6699 61.1872 85.9419 62.9862 85.6093 64.8768C85.2768 66.7674 85.3472 68.7069 85.816 70.5683C96.1098 73.1001 104.364 75.1433 114.936 76.0794L120.03 74.5495C119.386 81.8009 119.473 89.098 120.29 96.3329C127.227 95.6375 135.05 96.5589 143.431 98.4713C143.843 91.574 144.346 86.0895 146.16 79.8867C152.317 80.4238 158.506 80.5052 164.675 80.1301C166.361 79.9757 167.937 79.2292 169.124 78.0232C170.311 76.8171 171.032 75.2295 171.16 73.5421L172.742 53.0094C169.038 51.9583 165.165 51.6336 161.337 52.0533Z" fill="#FBB507"/>
<path d="M134.322 59.6687L132.566 61.3377L133.07 59.7739L134.322 59.6687Z" fill="#FBB507"/>
<path d="M114.936 76.0679C116.514 76.2061 118.179 76.3214 119.877 76.4074C119.927 75.7824 119.984 75.1621 120.03 74.538L114.936 76.0679Z" fill="#FBB507"/>
<path d="M88.6849 68.1524C88.6269 68.0819 88.5556 68.0236 88.475 67.9808C88.3945 67.938 88.3062 67.9117 88.2154 67.9032C88.1245 67.8947 88.0329 67.9043 87.9458 67.9315C87.8587 67.9586 87.7778 68.0027 87.7079 68.0612C87.6379 68.1198 87.5802 68.1916 87.5382 68.2726C87.4961 68.3535 87.4705 68.442 87.4628 68.5329C87.4552 68.6238 87.4656 68.7153 87.4935 68.8022C87.5213 68.8891 87.5662 68.9695 87.6253 69.039C87.7434 69.1777 87.9116 69.2641 88.0931 69.2794C88.2746 69.2947 88.4548 69.2377 88.5945 69.1208C88.7343 69.0039 88.8221 68.8366 88.839 68.6552C88.856 68.4738 88.8006 68.2931 88.6849 68.1524Z" fill="#FBB507"/>
<path d="M105.149 65.3574C105.032 65.2169 104.863 65.1287 104.681 65.1123C104.499 65.0959 104.317 65.1527 104.177 65.27C104.036 65.3873 103.948 65.5557 103.932 65.738C103.915 65.9203 103.972 66.1017 104.089 66.2422C104.148 66.3117 104.219 66.3692 104.299 66.4112C104.379 66.4533 104.467 66.4791 104.557 66.4872C104.648 66.4953 104.739 66.4856 104.825 66.4585C104.912 66.4315 104.992 66.3877 105.062 66.3296C105.131 66.2715 105.189 66.2002 105.231 66.1199C105.273 66.0396 105.299 65.9518 105.307 65.8616C105.315 65.7713 105.305 65.6803 105.278 65.5938C105.251 65.5073 105.207 65.4269 105.149 65.3574Z" fill="#FBB507"/>
<path d="M118.219 73.4075C118.161 73.3376 118.089 73.2799 118.009 73.2378C117.929 73.1956 117.841 73.17 117.75 73.1623C117.66 73.154 117.568 73.1637 117.482 73.1908C117.395 73.218 117.315 73.2621 117.245 73.3206C117.138 73.4064 117.059 73.5231 117.02 73.6549C116.98 73.7867 116.982 73.9274 117.025 74.0581C117.053 74.145 117.099 74.2255 117.158 74.2941C117.246 74.3983 117.363 74.4744 117.494 74.5128C117.625 74.5512 117.764 74.5502 117.895 74.5101C117.981 74.4833 118.062 74.4396 118.132 74.3815C118.202 74.3234 118.259 74.2521 118.301 74.1716C118.343 74.0911 118.369 74.0031 118.377 73.9127C118.385 73.8222 118.375 73.731 118.348 73.6445C118.321 73.5576 118.277 73.477 118.219 73.4075Z" fill="#FBB507"/>
<path d="M147.795 76.8655C147.882 76.9711 147.999 77.0484 148.13 77.0873C148.262 77.1263 148.402 77.1252 148.532 77.0843C148.663 77.0433 148.779 76.9643 148.864 76.8574C148.95 76.7505 149.002 76.6205 149.013 76.484C149.021 76.3824 149.007 76.2802 148.972 76.1847C148.936 76.0892 148.88 76.0027 148.807 75.9313C148.734 75.8599 148.647 75.8053 148.551 75.7715C148.455 75.7377 148.352 75.7254 148.251 75.7355C148.127 75.7492 148.008 75.7964 147.909 75.8719C147.809 75.9474 147.732 76.0485 147.685 76.1643C147.639 76.2802 147.624 76.4066 147.643 76.5301C147.663 76.6536 147.715 76.7695 147.795 76.8655Z" fill="#FBB507"/>
<path d="M168.414 71.7379C168.501 71.8435 168.618 71.9207 168.749 71.9597C168.881 71.9987 169.02 71.9976 169.151 71.9566C169.282 71.9157 169.397 71.8367 169.483 71.7298C169.569 71.6229 169.62 71.4928 169.632 71.3563C169.64 71.2548 169.626 71.1526 169.59 71.0571C169.555 70.9616 169.499 70.8751 169.426 70.8037C169.353 70.7323 169.266 70.6777 169.17 70.6439C169.073 70.61 168.971 70.5977 168.87 70.6079C168.745 70.6216 168.627 70.6687 168.528 70.7442C168.428 70.8198 168.351 70.9208 168.304 71.0367C168.257 71.1526 168.243 71.279 168.262 71.4025C168.282 71.5259 168.334 71.6418 168.414 71.7379Z" fill="#FBB507"/>
<path d="M129.714 81.1901C129.656 81.1201 129.585 81.0623 129.505 81.0202C129.424 80.9781 129.336 80.9525 129.246 80.9449C129.063 80.9287 128.882 80.9857 128.741 81.1032C128.67 81.1602 128.611 81.2311 128.568 81.3117C128.525 81.3922 128.499 81.4806 128.491 81.5716C128.482 81.6625 128.492 81.7542 128.521 81.841C128.549 81.9279 128.594 82.0081 128.654 82.0767C128.712 82.1476 128.783 82.2062 128.864 82.2492C128.945 82.2923 129.033 82.3188 129.124 82.3273C129.215 82.3359 129.307 82.3262 129.394 82.2988C129.481 82.2715 129.562 82.2271 129.632 82.1682C129.736 82.0795 129.813 81.9619 129.851 81.83C129.889 81.6981 129.887 81.5579 129.846 81.4271C129.818 81.34 129.774 81.2594 129.714 81.1901Z" fill="#FBB507"/>
<path d="M133.434 82.5852C133.521 82.6909 133.638 82.7681 133.769 82.807C133.901 82.846 134.041 82.8449 134.171 82.804C134.302 82.763 134.417 82.6841 134.503 82.5771C134.589 82.4702 134.641 82.3402 134.652 82.2037C134.66 82.1021 134.646 82 134.61 81.9045C134.575 81.8089 134.519 81.7224 134.446 81.651C134.373 81.5796 134.286 81.5251 134.19 81.4912C134.093 81.4574 133.991 81.4451 133.89 81.4552C133.765 81.469 133.647 81.5161 133.548 81.5916C133.448 81.6671 133.371 81.7682 133.324 81.8841C133.277 82 133.263 82.1264 133.282 82.2498C133.302 82.3733 133.354 82.4892 133.434 82.5852Z" fill="#FBB507"/>
<path d="M139.904 94.2148C139.97 94.2928 140.052 94.3554 140.145 94.398C140.238 94.4406 140.339 94.4621 140.441 94.4612C140.543 94.4602 140.643 94.4367 140.735 94.3924C140.827 94.3481 140.908 94.284 140.972 94.2047C141.058 94.0987 141.111 93.9693 141.123 93.8332C141.135 93.6971 141.107 93.5604 141.041 93.4407C140.995 93.3548 140.932 93.2794 140.855 93.2195C140.779 93.1596 140.69 93.1166 140.596 93.0932C140.501 93.0698 140.403 93.0666 140.307 93.0838C140.212 93.101 140.12 93.1382 140.04 93.1929C139.96 93.2477 139.892 93.3188 139.841 93.4016C139.79 93.4844 139.757 93.5771 139.744 93.6735C139.731 93.77 139.739 93.868 139.766 93.9613C139.794 94.0546 139.841 94.1409 139.904 94.2148Z" fill="#FBB507"/>
<path d="M122.153 92.5295C122.241 92.6336 122.358 92.7096 122.489 92.7479C122.62 92.7863 122.759 92.7855 122.89 92.7454C123.02 92.705 123.136 92.6266 123.222 92.5201C123.308 92.4136 123.361 92.284 123.373 92.1476C123.385 92.0112 123.357 91.8743 123.291 91.7542C123.225 91.6342 123.125 91.5365 123.003 91.4736C122.902 91.4204 122.79 91.393 122.676 91.3938C122.563 91.3946 122.451 91.4236 122.351 91.4781C122.251 91.5327 122.166 91.6111 122.104 91.7065C122.042 91.8018 122.004 91.911 121.995 92.0244C121.979 92.207 122.036 92.3885 122.153 92.5295Z" fill="#FBB507"/>
<path d="M141.185 54.4713C140.524 51.169 139.933 47.7433 137.36 45.5702C135.708 46.9427 132.752 49.5513 131.432 52.9423C134.96 46.8914 136.961 51.6549 136.612 54.2453C136.595 54.7156 136.856 54.8364 137.618 54.3505C139.219 53.3074 140.192 56.0185 137.219 57.1321C136.837 57.2712 135.95 59.2531 136.176 61.5131C135.852 58.3829 141.185 54.4713 141.185 54.4713Z" fill="#FBB507"/>
<path d="M163.755 54.5576C163.668 54.452 163.551 54.3748 163.42 54.3358C163.288 54.2969 163.148 54.2979 163.018 54.3389C162.887 54.3798 162.771 54.4588 162.686 54.5657C162.6 54.6727 162.548 54.8027 162.537 54.9392C162.529 55.0408 162.543 55.1429 162.578 55.2384C162.614 55.3339 162.67 55.4205 162.743 55.4919C162.816 55.5633 162.903 55.6178 162.999 55.6517C163.095 55.6855 163.198 55.6978 163.299 55.6877C163.423 55.6739 163.542 55.6268 163.641 55.5513C163.741 55.4758 163.818 55.3747 163.865 55.2588C163.911 55.1429 163.926 55.0165 163.907 54.8931C163.887 54.7696 163.835 54.6537 163.755 54.5576Z" fill="#FBB507"/>
<path d="M59.0266 122.989C56.0016 125.319 50.5591 129.353 48.6477 131.407C51.0642 131.947 58.6093 130.225 62.9556 130.225C64.3464 130.227 65.7317 130.039 67.0731 129.669C67.9075 128.747 68.8289 127.601 69.7851 126.54C66.0146 126.013 62.3701 124.81 59.0266 122.989Z" fill="#FBB507"/>
<path d="M95.3956 161.705C94.4569 165.408 92.6662 171.945 92.4228 174.727C94.6481 173.666 99.5342 167.634 102.945 164.956C104.038 164.096 105.014 163.097 105.849 161.983C105.936 160.749 105.953 159.271 106.057 157.846C102.759 159.751 99.1493 161.057 95.3956 161.705Z" fill="#FBB507"/>
<path d="M139.292 124.292L142.037 147.728C145.698 147.321 149.215 146.071 152.313 144.077C155.41 142.083 158.004 139.399 159.892 136.236L139.292 124.292Z" fill="#FBB507"/>
<path d="M143.258 79.6136L146.178 79.8918L145.396 82.7603L143.258 79.6136Z" fill="#FBB507"/>
<path d="M74.7567 65.9106C74.8406 65.8056 74.962 65.7373 75.0953 65.7203C72.3292 65.2079 69.7727 65.2308 68.3774 64.8053L38.477 62.9405C38.4164 62.939 38.3575 62.9608 38.3125 63.0015C38.2675 63.0422 38.24 63.0986 38.2355 63.1591C38.231 63.2196 38.25 63.2795 38.2885 63.3263C38.327 63.3732 38.382 63.4035 38.4422 63.4108L74.8574 66.6317C74.6561 66.305 74.6085 66.0982 74.7567 65.9106Z" fill="#FBB507"/>
<path d="M157.148 68.0303L138.756 26.7574C137.287 23.4591 134.568 20.8793 131.197 19.585C127.826 18.2908 124.079 18.3881 120.78 19.8555L28.1494 61.0937C24.8506 62.5627 22.2703 65.2818 20.976 68.653C19.6817 72.0242 19.7794 75.7715 21.2476 79.0707L52.0373 148.194C52.7644 149.828 53.8061 151.302 55.103 152.533C56.3999 153.764 57.9266 154.728 59.5959 155.368C61.2651 156.009 63.0443 156.315 64.8317 156.269C66.6192 156.222 68.3799 155.823 70.0134 155.096L96.23 143.431" stroke="#4560ED" stroke-width="0.540354" stroke-linecap="round" stroke-linejoin="round"/>
<path d="M113.285 135.834L162.642 113.859C164.276 113.132 165.75 112.09 166.981 110.794C168.212 109.497 169.175 107.97 169.816 106.301C170.457 104.632 170.763 102.852 170.716 101.065C170.67 99.2775 170.271 97.5167 169.544 95.8832L162.59 80.2715" stroke="#4560ED" stroke-width="0.540354" stroke-linecap="round" stroke-linejoin="round"/>
<path d="M69.5409 112.084L51.6206 71.8377C51.4331 71.4133 51.1637 71.0302 50.8277 70.7103C50.4917 70.3904 50.0958 70.14 49.6627 69.9736C49.2297 69.8072 48.768 69.7281 48.3043 69.7406C47.8405 69.7532 47.3839 69.8574 46.9605 70.047L38.9634 73.5935C38.539 73.7809 38.1559 74.0503 37.836 74.3862C37.5162 74.7221 37.2658 75.1179 37.0994 75.5509C36.933 75.9838 36.8538 76.4454 36.8664 76.9091C36.879 77.3728 36.9831 77.8294 37.1727 78.2527L57.5836 124.094" stroke="#4560ED" stroke-width="0.540354" stroke-linecap="round" stroke-linejoin="round"/>
<path d="M61.0773 131.97L63.6328 137.707C63.8203 138.132 64.0897 138.515 64.4256 138.835C64.7616 139.154 65.1574 139.405 65.5903 139.571C66.0232 139.737 66.4848 139.817 66.9484 139.804C67.4121 139.792 67.8687 139.688 68.292 139.498L76.2891 135.93C76.7133 135.742 77.0963 135.473 77.4161 135.137C77.7359 134.801 77.9864 134.405 78.153 133.972C78.3193 133.539 78.3985 133.078 78.3859 132.614C78.3734 132.15 78.2693 131.694 78.0798 131.27L75.2982 124.994" stroke="#4560ED" stroke-width="0.540354" stroke-linecap="round" stroke-linejoin="round"/>
<path d="M84.7037 117.526L88.7022 126.531C88.8899 126.955 89.1594 127.338 89.4954 127.658C89.8313 127.978 90.2271 128.228 90.66 128.394C91.0928 128.561 91.5543 128.64 92.0179 128.627C92.4815 128.615 92.938 128.511 93.3614 128.322L100.541 125.141" stroke="#4560ED" stroke-width="0.540354" stroke-linecap="round" stroke-linejoin="round"/>
<path d="M98.6633 110.013L103.253 120.305" stroke="#4560ED" stroke-width="0.540354" stroke-linecap="round" stroke-linejoin="round"/>
<path d="M91.9016 94.836L85.9037 81.3626C85.7165 80.9382 85.4472 80.555 85.1113 80.235C84.7754 79.9151 84.3796 79.6647 83.9465 79.4983C83.5135 79.3319 83.0519 79.2527 82.5882 79.2653C82.1245 79.278 81.6678 79.3822 81.2445 79.5719L73.2475 83.1185C72.823 83.3057 72.4398 83.5751 72.1199 83.9109C71.7999 84.2468 71.5496 84.6427 71.3831 85.0757C71.2167 85.5087 71.1376 85.9703 71.1502 86.434C71.1628 86.8977 71.267 87.3544 71.4568 87.7777L78.828 104.346" stroke="#4560ED" stroke-width="0.540354" stroke-linecap="round" stroke-linejoin="round"/>
<path d="M119.774 89.9364L114.976 79.1394C114.693 78.5005 114.227 77.96 113.637 77.5866C113.046 77.2132 112.358 77.0237 111.66 77.0422C111.196 77.055 110.74 77.1591 110.317 77.3487L102.319 80.9126C101.895 81.0997 101.511 81.369 101.191 81.7051C100.872 82.0412 100.621 82.4374 100.456 82.8707C100.289 83.3035 100.21 83.765 100.222 84.2286C100.235 84.6922 100.339 85.1487 100.529 85.5718L104.875 95.3623" stroke="#4560ED" stroke-width="0.540354" stroke-linecap="round" stroke-linejoin="round"/>
<path d="M144.787 105.442L151.515 102.434C152.155 102.152 152.696 101.687 153.069 101.096C153.443 100.505 153.632 99.8167 153.612 99.1182C153.599 98.6547 153.495 98.1982 153.306 97.7749L145.851 81.0158" stroke="#4560ED" stroke-width="0.540354" stroke-linecap="round" stroke-linejoin="round"/>
<path d="M136.408 59.8238L139.537 66.8474" stroke="#4560ED" stroke-width="0.540354" stroke-linecap="round" stroke-linejoin="round"/>
<path d="M132.548 51.1615L126.845 38.3314C126.563 37.6926 126.097 37.1523 125.507 36.7789C124.916 36.4055 124.229 36.2159 123.53 36.2342C123.066 36.2469 122.61 36.351 122.186 36.5407L114.189 40.1047C113.765 40.2921 113.382 40.5615 113.062 40.8975C112.742 41.2334 112.492 41.6292 112.325 42.0621C112.159 42.4951 112.08 42.9566 112.092 43.4203C112.105 43.8839 112.209 44.3405 112.398 44.7639L121.491 65.1921" stroke="#4560ED" stroke-width="0.540354" stroke-linecap="round" stroke-linejoin="round"/>
<path d="M133.068 59.7752C133.488 59.7771 133.907 59.7432 134.322 59.6746L132.566 61.3435" stroke="#4560ED" stroke-width="0.540354" stroke-linecap="round" stroke-linejoin="round"/>
<path d="M145.369 82.8112L143.258 79.6087L146.161 79.8969" stroke="#4560ED" stroke-width="0.540354" stroke-linecap="round" stroke-linejoin="round"/>
<path d="M76.2024 63.3332C73.9458 63.1792 71.6826 63.1444 69.4223 63.2289C67.0744 63.3817 66.0487 64.7093 70.2567 65.1412C73.3339 65.456 76.5501 65.628 79.3665 67.1057" stroke="#4560ED" stroke-width="0.540354" stroke-linecap="round" stroke-linejoin="round"/>
<path d="M74.186 61.7373C74.4815 60.3648 75.4029 59.9073 78.2193 60.1726" stroke="#4560ED" stroke-width="0.540354" stroke-linecap="round" stroke-linejoin="round"/>
<path d="M73.074 63.1795C73.4738 61.7155 74.2909 61.4237 76.9682 61.6671" stroke="#4560ED" stroke-width="0.540354" stroke-linecap="round" stroke-linejoin="round"/>
<path d="M75.3677 60.2755C75.7676 58.8847 76.689 58.634 79.3663 58.8115C82.0564 59.1244 84.7264 59.5892 87.3634 60.2023" stroke="#4560ED" stroke-width="0.540354" stroke-linecap="round" stroke-linejoin="round"/>
<path d="M87.3824 60.2078C85.7391 62.9284 85.0988 66.138 85.5726 69.2809C83.2902 69.7641 80.9228 69.6631 78.6899 68.9872C75.8534 68.2552 73.5257 65.5532 75.4874 65.7847C76.2853 65.9366 77.0704 66.1507 77.8344 66.4252" stroke="#4560ED" stroke-width="0.540354" stroke-linecap="round" stroke-linejoin="round"/>
<path d="M136.198 61.4967C135.858 58.4113 140.981 54.5912 141.182 54.4421C140.524 51.1481 139.929 47.7379 137.364 45.5711C134.915 47.608 132.9 50.1147 131.436 52.9433" stroke="#4560ED" stroke-width="0.540354" stroke-linecap="round" stroke-linejoin="round"/>
<path d="M96.178 109.737C101.594 110.242 106.947 111.284 112.157 112.848C109.737 114.591 107.393 116.437 105.131 118.381C102.858 120.338 101.198 122.909 100.35 125.787C97.764 134.815 95.8694 144.027 94.6829 153.343C99.4039 154.976 104.345 155.885 109.338 156.038C110.355 147.256 112.263 138.601 115.033 130.206L137.225 119.667C149.151 113.445 143.431 98.4752 143.431 98.4752C143.901 90.6693 144.544 85.1683 146.161 79.9007C152.318 80.4428 158.506 80.5266 164.676 80.1514C166.361 79.997 167.937 79.2505 169.124 78.0445C170.311 76.8385 171.033 75.2508 171.16 73.5634L172.741 53.0308C169.033 51.9677 165.155 51.6312 161.32 52.0398L160.034 67.9782C139.258 68.3259 137.311 66.3962 136.737 64.9011C135.502 61.6501 136.684 57.3203 137.241 57.1126C140.213 55.9981 139.238 53.2833 137.641 54.3301C137.045 54.7217 136.563 54.8654 136.643 54.1581C136.937 51.5512 134.943 46.9552 131.451 52.9393C127.917 58.9783 131.115 59.7743 133.068 59.7734C133.068 59.7734 132.267 62.0664 131.816 64.0666C131.503 65.4565 129.904 65.3924 126.67 65.3705C112.03 65.2698 101.845 63.0583 87.7279 59.5813C86.6606 61.1748 85.9376 62.9736 85.6052 64.8625C85.2727 66.7515 85.3382 68.689 85.7973 70.5512C98.5954 73.707 107.231 75.7667 119.876 76.4017C119.37 83.6925 119.59 91.0156 120.533 98.2629C112.379 96.3662 104.1 95.0475 95.7598 94.3165C93.5783 94.1244 91.4018 94.7365 89.6403 96.0376C80.8243 102.518 72.3415 109.441 64.2243 116.778C66.57 120.624 69.5635 124.036 73.0724 126.861C80.303 120.543 88.0298 114.817 96.178 109.737Z" stroke="#4560ED" stroke-width="0.540354" stroke-linecap="round" stroke-linejoin="round"/>
<path d="M125.141 104.817C120.63 107.186 116.291 109.868 112.156 112.844" stroke="#4560ED" stroke-width="0.540354" stroke-linecap="round" stroke-linejoin="round"/>
<path d="M143.449 98.4697C135.068 96.5573 127.245 95.6332 120.308 96.3313" stroke="#4560ED" stroke-width="0.540354" stroke-linecap="round" stroke-linejoin="round"/>
<path d="M125.819 65.3688L131.539 80.9457L142.458 67.4202" stroke="#4560ED" stroke-width="0.540354" stroke-linecap="round" stroke-linejoin="round"/>
<path d="M131.261 64.9338C132.057 65.5715 133.028 65.9542 134.045 66.0317C135.063 66.1093 136.08 65.8781 136.964 65.3684" stroke="#4560ED" stroke-width="0.540354" stroke-linecap="round" stroke-linejoin="round"/>
<path d="M127.888 65.3884L129.87 70.4649L133.955 66.0317L136.964 70.8995L140.197 67.0052" stroke="#4560ED" stroke-width="0.540354" stroke-linecap="round" stroke-linejoin="round"/>
<path d="M133.956 66.0286C132.756 70.653 130.131 89.1854 130.387 96.3307" stroke="#4560ED" stroke-width="0.540354" stroke-linecap="round" stroke-linejoin="round"/>
<path d="M138.531 97.4474C138.531 97.4474 137.488 105.042 143.434 107.426" stroke="#4560ED" stroke-width="0.540354" stroke-linecap="round" stroke-linejoin="round"/>
<path d="M141.779 106.523C132.075 111.3 122.773 116.852 113.963 123.126C111.124 125.173 109.05 128.11 108.07 131.471C105.852 139.342 104.19 147.359 103.098 155.463" stroke="#4560ED" stroke-width="0.540354" stroke-linecap="round" stroke-linejoin="round"/>
<path d="M117.996 108.938C111.48 107.09 104.855 105.65 98.1597 104.626C95.9352 104.292 93.6661 104.8 91.7968 106.052C83.8996 111.295 76.3502 117.044 69.1963 123.263" stroke="#4560ED" stroke-width="0.540354" stroke-linecap="round" stroke-linejoin="round"/>
<path d="M71.1605 125.173C68.8231 123.058 66.7613 120.657 65.0236 118.028C63.6328 119.384 61.338 121.209 59.0258 123C62.3752 124.813 66.0181 126.021 69.7871 126.568C70.2135 126.073 70.6728 125.607 71.1605 125.173Z" stroke="#4560ED" stroke-width="0.540354" stroke-linecap="round" stroke-linejoin="round"/>
<path d="M48.6473 131.399C48.1441 131.955 47.876 132.358 47.9684 132.581C48.543 133.97 56.8009 131.921 61.2176 131.921C62.5134 131.931 63.8031 131.743 65.0423 131.364C65.8231 130.94 66.5083 130.361 67.0553 129.661C65.7139 130.032 64.3286 130.219 62.9378 130.217C58.6098 130.22 51.0464 131.958 48.6473 131.399Z" stroke="#4560ED" stroke-width="0.540354" stroke-linecap="round" stroke-linejoin="round"/>
<path d="M59.0256 122.985C56.0006 125.315 50.5591 129.348 48.6468 131.403C51.0633 131.942 58.6084 130.221 62.9546 130.221C64.3454 130.222 65.7307 130.035 67.0721 129.665C67.9066 128.743 68.828 127.596 69.7842 126.536C66.0137 126.009 62.3692 124.806 59.0256 122.985Z" stroke="#4560ED" stroke-width="0.540354" stroke-linecap="round" stroke-linejoin="round"/>
<path d="M106.278 155.862C103.152 155.576 100.06 154.988 97.0468 154.106C96.786 156.018 96.108 158.869 95.3998 161.7C99.1517 161.051 102.759 159.745 106.057 157.841C106.104 157.183 106.174 156.47 106.278 155.862Z" stroke="#4560ED" stroke-width="0.540354" stroke-linecap="round" stroke-linejoin="round"/>
<path d="M92.4228 174.724C92.3532 175.471 92.4063 175.956 92.614 176.062C93.9581 176.748 99.1435 170.072 102.628 167.352C103.652 166.56 104.549 165.616 105.288 164.553C105.646 163.737 105.829 162.855 105.827 161.963C104.997 163.08 104.021 164.08 102.923 164.936C99.5131 167.605 94.6654 173.663 92.4228 174.724Z" stroke="#4560ED" stroke-width="0.540354" stroke-linecap="round" stroke-linejoin="round"/>
<path d="M95.3955 161.705C94.4567 165.408 92.666 171.945 92.4226 174.727C94.6479 173.666 99.534 167.634 102.945 164.956C104.038 164.096 105.014 163.097 105.848 161.983C105.935 160.749 105.953 159.271 106.057 157.846C102.758 159.751 99.1491 161.057 95.3955 161.705Z" stroke="#4560ED" stroke-width="0.540354" stroke-linecap="round" stroke-linejoin="round"/>
<path d="M16.8316 101.047L8.3477 81.7149" stroke="#4560ED" stroke-width="0.540354" stroke-linecap="round" stroke-linejoin="round"/>
<path d="M4.57539 91.4158L8.34794 81.7149L18.0488 85.5049" stroke="#4560ED" stroke-width="0.540354" stroke-linecap="round" stroke-linejoin="round"/>
<path d="M170.535 137.309C170.67 137.619 170.735 137.955 170.724 138.294C170.714 138.632 170.629 138.964 170.475 139.265C170.321 139.566 170.103 139.83 169.835 140.036C169.567 140.243 169.257 140.388 168.926 140.46C168.484 140.556 168.023 140.518 167.603 140.353C167.182 140.187 166.82 139.9 166.562 139.528C166.304 139.157 166.162 138.717 166.153 138.265C166.145 137.812 166.271 137.368 166.515 136.987C166.801 136.543 167.232 136.211 167.736 136.049C168.239 135.888 168.782 135.906 169.274 136.1C169.837 136.322 170.289 136.756 170.535 137.309Z" stroke="#4560ED" stroke-width="0.540354" stroke-linecap="round" stroke-linejoin="round"/>
<path d="M178.236 140.284C178.371 140.594 178.436 140.93 178.425 141.268C178.415 141.607 178.33 141.938 178.176 142.24C178.022 142.541 177.804 142.804 177.536 143.011C177.268 143.218 176.958 143.363 176.627 143.435C176.185 143.531 175.724 143.493 175.304 143.327C174.883 143.161 174.521 142.875 174.263 142.503C174.005 142.131 173.863 141.692 173.854 141.239C173.846 140.787 173.972 140.343 174.216 139.962C174.461 139.581 174.813 139.282 175.228 139.102C175.784 138.864 176.412 138.854 176.974 139.076C177.537 139.297 177.99 139.731 178.236 140.284Z" stroke="#4560ED" stroke-width="0.540354" stroke-linecap="round" stroke-linejoin="round"/>
<path d="M169.561 146.529L174.985 132.776" stroke="#4560ED" stroke-width="0.540354" stroke-linecap="round" stroke-linejoin="round"/>
<path d="M170.308 52.4338C170.333 50.4523 170.554 48.4781 170.969 46.5403C171.358 44.9569 171.923 43.4223 172.655 41.9653C173.735 39.8279 173.585 39.4719 171.63 41.2004C170.876 41.8567 170.194 42.5909 169.596 43.3909C167.556 45.9986 165.836 48.841 164.472 51.8574" stroke="#4560ED" stroke-width="0.540354" stroke-linecap="round" stroke-linejoin="round"/>
<path d="M168.118 45.4275C166.97 46.7835 166.518 43.237 165.91 41.7245C165.406 40.4728 164.472 39.3601 164.537 43.097C164.449 46.0312 164.182 48.9574 163.738 51.859" stroke="#4560ED" stroke-width="0.540354" stroke-linecap="round" stroke-linejoin="round"/>
<path d="M172.308 42.6865C173.088 41.695 173.961 40.781 174.916 39.9571C176.785 38.4245 177.073 39.0201 176.863 39.3486C176.039 40.6406 174.484 42.5822 173.752 43.7992C172.501 45.908 171.392 48.0975 170.431 50.3533" stroke="#4560ED" stroke-width="0.540354" stroke-linecap="round" stroke-linejoin="round"/>
<path d="M175.02 41.9353C175.35 41.6919 175.403 41.6608 175.559 41.5528C177.576 40.1702 177.82 40.8062 177.572 41.1182C176.618 42.3379 175.017 43.9876 174.06 45.0646C172.846 46.2236 171.814 47.56 171 49.0284" stroke="#4560ED" stroke-width="0.540354" stroke-linecap="round" stroke-linejoin="round"/>
<path d="M58.0873 38.0398L50.264 51.2176L35.3294 47.8101" stroke="#4560ED" stroke-width="0.540354" stroke-linecap="round" stroke-linejoin="round"/>
<path d="M64.2418 44.9256C62.5686 41.2429 59.5075 38.3707 55.7258 36.9352C51.944 35.4997 47.7481 35.6171 44.0526 37.2619C40.357 38.9068 37.4614 41.9456 35.9968 45.7162C34.5322 49.4868 34.6173 53.6835 36.2337 57.3916" stroke="#4560ED" stroke-width="0.540354" stroke-linecap="round" stroke-linejoin="round"/>
<path d="M156.939 40.6498L158.677 36.1645L154.209 34.4781L155.948 29.9754L151.428 28.15L153.166 23.6646L148.559 21.8566" stroke="#4560ED" stroke-width="0.540354" stroke-linecap="round" stroke-linejoin="round"/>
<path d="M158.835 33.0873L160.573 28.6019L156.123 26.9156L157.861 22.4129L153.324 20.5875L155.079 16.1021L150.455 14.3115" stroke="#4560ED" stroke-width="0.540354" stroke-linecap="round" stroke-linejoin="round"/>
<path d="M161.041 114.572C162.527 117.807 163.252 121.34 163.162 124.899C162.945 130.269 160.927 135.409 157.434 139.493C153.941 143.577 149.175 146.367 143.904 147.413C138.632 148.459 133.162 147.701 128.374 145.26C123.586 142.819 119.758 138.838 117.508 133.957" stroke="#4560ED" stroke-width="0.540354" stroke-linecap="round" stroke-linejoin="round"/>
<path d="M159.895 136.231L139.294 124.305L142.041 147.724" stroke="#4560ED" stroke-width="0.540354" stroke-linecap="round" stroke-linejoin="round"/>
<path d="M139.294 124.305L121.195 139.656" stroke="#4560ED" stroke-width="0.540354" stroke-linecap="round" stroke-linejoin="round"/>
<path d="M88.1458 8.38257L93.6395 20.2218" stroke="#4560ED" stroke-width="0.540354" stroke-linecap="round" stroke-linejoin="round"/>
<path d="M96.8214 11.5444L84.9649 17.0554" stroke="#4560ED" stroke-width="0.540354" stroke-linecap="round" stroke-linejoin="round"/>
<path d="M39.7623 138.408L36.3722 143.155L33.9566 137.834L39.7623 138.408Z" stroke="#4560ED" stroke-width="0.540354" stroke-linecap="round" stroke-linejoin="round"/>
<path d="M120.534 98.2614L121.994 98.5743" stroke="#4560ED" stroke-width="0.540354" stroke-linecap="round" stroke-linejoin="round"/>
<path d="M41.2609 226.362V211.333H43.1774L51.6098 222.973L50.702 223.114V211.333H53.0623V226.362H51.1458L42.7739 214.642L43.6414 214.48V226.362H41.2609ZM61.2175 226.604C60.1684 226.604 59.2069 226.356 58.3327 225.858C57.472 225.36 56.7861 224.681 56.275 223.82C55.764 222.96 55.5084 221.985 55.5084 220.895C55.5084 219.792 55.764 218.817 56.275 217.97C56.7861 217.109 57.472 216.437 58.3327 215.953C59.1934 215.455 60.155 215.206 61.2175 215.206C62.2934 215.206 63.255 215.455 64.1022 215.953C64.963 216.437 65.6421 217.109 66.1397 217.97C66.6508 218.817 66.9063 219.792 66.9063 220.895C66.9063 221.998 66.6508 222.98 66.1397 223.841C65.6287 224.701 64.9428 225.38 64.0821 225.878C63.2213 226.362 62.2665 226.604 61.2175 226.604ZM61.2175 224.486C61.863 224.486 62.4346 224.331 62.9322 224.022C63.4298 223.713 63.8198 223.289 64.1022 222.751C64.3981 222.2 64.546 221.581 64.546 220.895C64.546 220.209 64.3981 219.597 64.1022 219.06C63.8198 218.522 63.4298 218.098 62.9322 217.789C62.4346 217.479 61.863 217.325 61.2175 217.325C60.5854 217.325 60.0138 217.479 59.5027 217.789C59.0051 218.098 58.6084 218.522 58.3125 219.06C58.0301 219.597 57.8889 220.209 57.8889 220.895C57.8889 221.581 58.0301 222.2 58.3125 222.751C58.6084 223.289 59.0051 223.713 59.5027 224.022C60.0138 224.331 60.5854 224.486 61.2175 224.486ZM81.252 230.397V224.143L81.6151 224.567C81.2385 225.226 80.7006 225.73 80.0013 226.08C79.3019 226.429 78.5353 226.604 77.7015 226.604C76.6525 226.604 75.7111 226.356 74.8773 225.858C74.0569 225.347 73.4046 224.661 72.9205 223.8C72.4497 222.94 72.2144 221.971 72.2144 220.895C72.2144 219.819 72.4565 218.851 72.9406 217.99C73.4248 217.13 74.0771 216.45 74.8974 215.953C75.7178 215.455 76.6458 215.206 77.6813 215.206C78.5555 215.206 79.3288 215.381 80.0013 215.731C80.6737 216.081 81.2049 216.565 81.5949 217.183L81.3529 217.708V215.449H83.5114V230.397H81.252ZM77.9234 224.486C78.5555 224.486 79.1204 224.331 79.618 224.022C80.129 223.713 80.5258 223.289 80.8082 222.751C81.1041 222.2 81.252 221.581 81.252 220.895C81.252 220.209 81.1041 219.597 80.8082 219.06C80.5258 218.522 80.129 218.098 79.618 217.789C79.1204 217.479 78.5555 217.325 77.9234 217.325C77.2913 217.325 76.7197 217.479 76.2087 217.789C75.6976 218.098 75.3009 218.522 75.0185 219.06C74.736 219.597 74.5948 220.209 74.5948 220.895C74.5948 221.581 74.736 222.2 75.0185 222.751C75.3009 223.289 75.6909 223.713 76.1885 224.022C76.6996 224.331 77.2779 224.486 77.9234 224.486ZM90.0661 226.604C89.2457 226.604 88.5262 226.423 87.9076 226.06C87.2889 225.683 86.8048 225.165 86.4551 224.506C86.1189 223.834 85.9508 223.061 85.9508 222.186V215.449H88.2304V221.985C88.2304 222.482 88.3312 222.919 88.533 223.296C88.7347 223.672 89.0171 223.968 89.3802 224.184C89.7434 224.385 90.1603 224.486 90.631 224.486C91.1151 224.486 91.5388 224.379 91.9019 224.163C92.265 223.948 92.5474 223.646 92.7492 223.256C92.9643 222.866 93.0719 222.408 93.0719 221.884V215.449H95.3313V226.362H93.1728V224.224L93.4149 224.506C93.1594 225.179 92.7357 225.697 92.144 226.06C91.5522 226.423 90.8596 226.604 90.0661 226.604ZM97.9929 226.362V215.449H100.273V226.362H97.9929ZM97.9929 213.956V211.333H100.273V213.956H97.9929ZM101.949 226.362V224.486L108.364 216.719L108.727 217.506H102.252V215.449H110.745V217.304L104.41 225.091L104.047 224.284H110.765V226.362H101.949ZM111.445 226.362V224.486L117.86 216.719L118.223 217.506H111.747V215.449H120.24V217.304L113.906 225.091L113.543 224.284H120.261V226.362H111.445ZM127.053 226.604C125.964 226.604 124.995 226.356 124.148 225.858C123.314 225.347 122.662 224.661 122.191 223.8C121.721 222.926 121.485 221.951 121.485 220.875C121.485 219.772 121.721 218.797 122.191 217.95C122.675 217.103 123.321 216.437 124.128 215.953C124.935 215.455 125.849 215.206 126.871 215.206C127.692 215.206 128.425 215.348 129.07 215.63C129.716 215.913 130.261 216.303 130.704 216.8C131.148 217.284 131.484 217.842 131.713 218.475C131.955 219.107 132.076 219.779 132.076 220.492C132.076 220.667 132.069 220.848 132.056 221.037C132.042 221.225 132.016 221.4 131.975 221.561H123.281V219.745H130.684L129.595 220.573C129.729 219.914 129.682 219.329 129.454 218.817C129.238 218.293 128.902 217.883 128.445 217.587C128.001 217.278 127.477 217.123 126.871 217.123C126.266 217.123 125.728 217.278 125.258 217.587C124.787 217.883 124.424 218.313 124.168 218.878C123.913 219.429 123.812 220.102 123.866 220.895C123.798 221.635 123.899 222.281 124.168 222.832C124.451 223.383 124.841 223.814 125.338 224.123C125.849 224.432 126.428 224.587 127.073 224.587C127.732 224.587 128.29 224.439 128.748 224.143C129.218 223.847 129.588 223.464 129.857 222.993L131.713 223.901C131.498 224.412 131.162 224.876 130.704 225.293C130.261 225.697 129.723 226.019 129.09 226.261C128.472 226.49 127.793 226.604 127.053 226.604ZM138.335 226.604C137.219 226.604 136.237 226.329 135.39 225.777C134.556 225.226 133.971 224.486 133.635 223.558L135.39 222.731C135.686 223.35 136.09 223.841 136.601 224.204C137.125 224.567 137.703 224.748 138.335 224.748C138.873 224.748 139.311 224.627 139.647 224.385C139.983 224.143 140.151 223.814 140.151 223.397C140.151 223.128 140.077 222.913 139.929 222.751C139.781 222.576 139.593 222.435 139.364 222.328C139.149 222.22 138.927 222.139 138.699 222.086L136.984 221.601C136.042 221.332 135.336 220.929 134.866 220.391C134.408 219.84 134.18 219.201 134.18 218.475C134.18 217.816 134.348 217.244 134.684 216.76C135.02 216.262 135.484 215.879 136.076 215.61C136.668 215.341 137.334 215.206 138.073 215.206C139.068 215.206 139.956 215.455 140.736 215.953C141.516 216.437 142.068 217.116 142.39 217.99L140.635 218.817C140.42 218.293 140.077 217.876 139.606 217.567C139.149 217.257 138.631 217.103 138.053 217.103C137.555 217.103 137.159 217.224 136.863 217.466C136.567 217.694 136.419 217.997 136.419 218.374C136.419 218.629 136.486 218.844 136.621 219.019C136.755 219.181 136.93 219.315 137.145 219.423C137.36 219.517 137.582 219.597 137.811 219.665L139.586 220.189C140.487 220.445 141.18 220.848 141.664 221.4C142.148 221.938 142.39 222.583 142.39 223.336C142.39 223.982 142.215 224.553 141.866 225.051C141.53 225.535 141.059 225.918 140.454 226.201C139.848 226.47 139.142 226.604 138.335 226.604Z" fill="black"/>
</svg>
