<svg width="25" height="24" viewBox="0 0 25 24" fill="none" xmlns="http://www.w3.org/2000/svg">
<path d="M21.452 3.048C20.781 2.37701 19.8709 2.00005 18.922 2.00005C17.9731 2.00005 17.063 2.37701 16.392 3.048L4.43999 15C4.03378 15.4062 3.7482 15.9172 3.61499 16.476L2.51999 21.078C2.49034 21.2026 2.49312 21.3328 2.52806 21.4561C2.56301 21.5794 2.62895 21.6916 2.7196 21.7822C2.81025 21.8727 2.92258 21.9385 3.04589 21.9733C3.1692 22.0082 3.29937 22.0108 3.42399 21.981L8.02499 20.885C8.58418 20.752 9.09548 20.4664 9.50199 20.06L21.452 8.11C22.123 7.43899 22.4999 6.52893 22.4999 5.58C22.4999 4.63107 22.123 3.721 21.452 3.05M17.452 4.11C17.645 3.91695 17.8742 3.76382 18.1264 3.65935C18.3787 3.55488 18.649 3.5011 18.922 3.5011C19.195 3.5011 19.4653 3.55488 19.7175 3.65935C19.9698 3.76382 20.1989 3.91695 20.392 4.11C20.585 4.30304 20.7382 4.53222 20.8426 4.78444C20.9471 5.03666 21.0009 5.30699 21.0009 5.58C21.0009 5.853 20.9471 6.12333 20.8426 6.37556C20.7382 6.62778 20.585 6.85695 20.392 7.05L19.5 7.939L16.56 5L17.452 4.11ZM15.5 6.062L18.44 9L8.43999 19C8.22999 19.21 7.96599 19.357 7.67699 19.426L4.26099 20.24L5.07399 16.824C5.14299 16.534 5.29099 16.27 5.50099 16.06L15.5 6.062Z" fill="black"/>
</svg>
