<svg width="17" height="17" viewBox="0 0 17 17" fill="none" xmlns="http://www.w3.org/2000/svg">
<g id="Send">
<g id="Iconly/Bulk/Send">
<g id="Send_2">
<path id="Fill-1" d="M14.6974 2.035C14.368 1.69795 13.8805 1.57329 13.426 1.70521L2.8267 4.77161C2.34713 4.90485 2.00721 5.28543 1.91565 5.76824C1.8221 6.26029 2.14884 6.88558 2.57571 7.14677L5.88989 9.17301C6.2298 9.38144 6.66853 9.32933 6.94981 9.04703L10.7449 5.24717C10.9359 5.04864 11.2521 5.04864 11.4431 5.24717C11.6342 5.43779 11.6342 5.74846 11.4431 5.94633L7.6415 9.74619C7.35956 10.0285 7.30686 10.4665 7.51436 10.8075L9.53936 14.1384C9.77651 14.5334 10.1849 14.7584 10.6329 14.7584C10.6856 14.7584 10.7449 14.7584 10.7976 14.7511C11.3114 14.6858 11.7198 14.3356 11.8713 13.8409L15.0136 3.308C15.1519 2.85948 15.0267 2.37139 14.6974 2.035Z" fill="#4560ED"/>
<path id="Combined-Shape" opacity="0.4" d="M6.80683 12.9609C6.99916 13.1541 6.99916 13.4674 6.80683 13.6607L5.90711 14.5611C5.81095 14.658 5.68449 14.7062 5.55803 14.7062C5.43157 14.7062 5.30511 14.658 5.20895 14.5611C5.01596 14.3678 5.01596 14.0551 5.20895 13.8619L6.108 12.9609C6.30099 12.7683 6.61385 12.7683 6.80683 12.9609ZM6.29065 10.4623C6.48297 10.6556 6.48297 10.9689 6.29065 11.1622L5.39093 12.0625C5.29477 12.1595 5.16831 12.2076 5.04185 12.2076C4.91539 12.2076 4.78893 12.1595 4.69276 12.0625C4.49978 11.8692 4.49978 11.5566 4.69276 11.3633L5.59182 10.4623C5.7848 10.2697 6.09766 10.2697 6.29065 10.4623ZM3.81333 9.67582C4.00566 9.86909 4.00566 10.1824 3.81333 10.3757L2.91362 11.276C2.81746 11.373 2.691 11.4211 2.56454 11.4211C2.43807 11.4211 2.31161 11.373 2.21545 11.276C2.02247 11.0827 2.02247 10.7701 2.21545 10.5768L3.11451 9.67582C3.30749 9.48322 3.62035 9.48322 3.81333 9.67582Z" fill="#4560ED"/>
</g>
</g>
</g>
</svg>
